<svg width="215" height="180" viewBox="0 0 215 180" fill="none" xmlns="http://www.w3.org/2000/svg">
<path fill-rule="evenodd" clip-rule="evenodd" d="M145.729 107.953L178.632 140.855L180.046 142.269L181.46 140.855L213.586 108.729L215 107.315L213.586 105.901L109.1 1.41418L107.686 0L106.272 1.41418L72.7312 34.9545L72.7397 34.9631L58.7656 48.9373L53.4141 43.5857L52 45L66 59L67.4141 57.5857L60.1797 50.3514L74.1538 36.3773L75.5679 34.9634L75.5591 34.9548L107.686 2.82837L212.172 107.315L180.046 139.441L145.729 105.125L144.315 103.711L142.901 105.125L132.933 115.093L131.519 116.507L132.933 117.921L167.74 152.728L143.721 176.747L108.914 141.94L107.5 140.526L106.086 141.94L71.2788 176.747L45.2957 150.764L116.918 79.1414L118.332 77.7271L116.918 76.3129L107.135 66.5306L105.721 65.1165L104.307 66.5308L32.9817 137.857L2.82837 107.703L48.7656 61.7656L59 72L60.4141 70.5857L40.4141 50.5857L39 52L47.3516 60.3514L1.41431 106.289L0 107.703L1.41431 109.117L31.5676 139.271L32.9817 140.685L34.396 139.271L104.307 69.3593L105.721 67.9449L107.135 69.3591L114.09 76.313L115.504 77.7272L114.09 79.1415L43.8816 149.35L42.4673 150.764L43.8816 152.178L69.8645 178.161L71.2788 179.575L72.6931 178.161L106.086 144.768L107.5 143.354L108.914 144.768L142.307 178.161L143.721 179.575L145.135 178.161L169.154 154.142L170.568 152.728L169.154 151.314L135.761 117.921L134.347 116.507L135.761 115.093L142.901 107.953L144.315 106.539L145.729 107.953Z" fill="#f0f0f0"/>
</svg>
