<svg width="471" height="651" viewBox="0 0 471 651" fill="none" xmlns="http://www.w3.org/2000/svg">
<rect x="4.33013" y="7.5" width="352" height="352" transform="matrix(0.866025 0.5 -2.20305e-08 1 157.08 -2.16506)" stroke="#232323" stroke-width="10"/>
<rect x="4.33013" y="7.5" width="161" height="161" transform="matrix(0.866025 0.5 -2.20305e-08 1 240.219 140.835)" stroke="#232323" stroke-width="10"/>
<rect width="362" height="362" transform="matrix(0.866025 0.5 -2.20305e-08 1 4.5 100)" fill="#F0F0F0" stroke="#232323" stroke-width="10"/>
<rect width="171" height="171" transform="matrix(0.866025 0.5 -2.20305e-08 1 87.6384 243)" stroke="#232323" stroke-width="15"/>
<path d="M9.69479 92.5779L156.532 5.78941L461.121 181.365L316.349 280.543L9.69479 92.5779Z" fill="#F0F0F0" stroke="#232323" stroke-width="10"/>
<path d="M327.292 641.167L319.59 278.757L465.5 188.949V537.706L327.292 641.167Z" fill="#F0F0F0" stroke="#232323" stroke-width="10"/>
</svg>
